<svg width="242" height="242" viewBox="0 0 242 242" fill="none" xmlns="http://www.w3.org/2000/svg">
<path d="M20.1667 0C9.14836 0 0 9.14836 0 20.1667C0 31.185 9.14836 40.3333 20.1667 40.3333C31.185 40.3333 40.3333 31.185 40.3333 20.1667C40.3333 9.14836 31.185 0 20.1667 0ZM60.5 10.0833C57.8257 10.0833 55.261 11.1457 53.37 13.0367C51.479 14.9277 50.4167 17.4924 50.4167 20.1667C50.4167 22.8409 51.479 25.4057 53.37 27.2967C55.261 29.1876 57.8257 30.25 60.5 30.25C63.1743 30.25 65.739 29.1876 67.63 27.2967C69.521 25.4057 70.5833 22.8409 70.5833 20.1667C70.5833 17.4924 69.521 14.9277 67.63 13.0367C65.739 11.1457 63.1743 10.0833 60.5 10.0833ZM90.75 10.0833C88.0757 10.0833 85.511 11.1457 83.62 13.0367C81.729 14.9277 80.6667 17.4924 80.6667 20.1667C80.6667 22.8409 81.729 25.4057 83.62 27.2967C85.511 29.1876 88.0757 30.25 90.75 30.25C93.4243 30.25 95.989 29.1876 97.88 27.2967C99.771 25.4057 100.833 22.8409 100.833 20.1667C100.833 17.4924 99.771 14.9277 97.88 13.0367C95.989 11.1457 93.4243 10.0833 90.75 10.0833ZM121 10.0833C118.326 10.0833 115.761 11.1457 113.87 13.0367C111.979 14.9277 110.917 17.4924 110.917 20.1667C110.917 22.8409 111.979 25.4057 113.87 27.2967C115.761 29.1876 118.326 30.25 121 30.25C123.674 30.25 126.239 29.1876 128.13 27.2967C130.021 25.4057 131.083 22.8409 131.083 20.1667C131.083 17.4924 130.021 14.9277 128.13 13.0367C126.239 11.1457 123.674 10.0833 121 10.0833ZM151.25 10.0833C148.576 10.0833 146.011 11.1457 144.12 13.0367C142.229 14.9277 141.167 17.4924 141.167 20.1667C141.167 22.8409 142.229 25.4057 144.12 27.2967C146.011 29.1876 148.576 30.25 151.25 30.25C153.924 30.25 156.489 29.1876 158.38 27.2967C160.271 25.4057 161.333 22.8409 161.333 20.1667C161.333 17.4924 160.271 14.9277 158.38 13.0367C156.489 11.1457 153.924 10.0833 151.25 10.0833ZM181.5 10.0833C178.826 10.0833 176.261 11.1457 174.37 13.0367C172.479 14.9277 171.417 17.4924 171.417 20.1667C171.417 22.8409 172.479 25.4057 174.37 27.2967C176.261 29.1876 178.826 30.25 181.5 30.25C184.174 30.25 186.739 29.1876 188.63 27.2967C190.521 25.4057 191.583 22.8409 191.583 20.1667C191.583 17.4924 190.521 14.9277 188.63 13.0367C186.739 11.1457 184.174 10.0833 181.5 10.0833ZM211.75 10.0833C209.076 10.0833 206.511 11.1457 204.62 13.0367C202.729 14.9277 201.667 17.4924 201.667 20.1667C201.667 22.8409 202.729 25.4057 204.62 27.2967C206.511 29.1876 209.076 30.25 211.75 30.25C214.424 30.25 216.989 29.1876 218.88 27.2967C220.771 25.4057 221.833 22.8409 221.833 20.1667C221.833 17.4924 220.771 14.9277 218.88 13.0367C216.989 11.1457 214.424 10.0833 211.75 10.0833ZM231.917 30.25C229.242 30.25 226.678 31.3124 224.787 33.2033C222.896 35.0943 221.833 37.6591 221.833 40.3333C221.833 43.0076 222.896 45.5723 224.787 47.4633C226.678 49.3543 229.242 50.4167 231.917 50.4167C234.591 50.4167 237.156 49.3543 239.047 47.4633C240.938 45.5723 242 43.0076 242 40.3333C242 37.6591 240.938 35.0943 239.047 33.2033C237.156 31.3124 234.591 30.25 231.917 30.25ZM121 60.5C104.322 60.5 90.75 74.0722 90.75 90.75C90.75 103.344 107.028 136.045 112.02 145.775L121 163.244L129.98 145.775C134.972 136.045 151.25 103.344 151.25 90.75C151.25 74.0722 137.678 60.5 121 60.5ZM231.917 60.5C229.242 60.5 226.678 61.5623 224.787 63.4533C222.896 65.3443 221.833 67.9091 221.833 70.5833C221.833 73.2576 222.896 75.8223 224.787 77.7133C226.678 79.6043 229.242 80.6667 231.917 80.6667C234.591 80.6667 237.156 79.6043 239.047 77.7133C240.938 75.8223 242 73.2576 242 70.5833C242 67.9091 240.938 65.3443 239.047 63.4533C237.156 61.5623 234.591 60.5 231.917 60.5ZM121 80.6667C126.566 80.6667 131.083 85.184 131.083 90.75C131.083 96.316 126.566 100.833 121 100.833C115.434 100.833 110.917 96.316 110.917 90.75C110.917 85.184 115.434 80.6667 121 80.6667ZM231.917 90.75C229.242 90.75 226.678 91.8123 224.787 93.7033C222.896 95.5943 221.833 98.1591 221.833 100.833C221.833 103.508 222.896 106.072 224.787 107.963C226.678 109.854 229.242 110.917 231.917 110.917C234.591 110.917 237.156 109.854 239.047 107.963C240.938 106.072 242 103.508 242 100.833C242 98.1591 240.938 95.5943 239.047 93.7033C237.156 91.8123 234.591 90.75 231.917 90.75ZM231.917 121C229.242 121 226.678 122.062 224.787 123.953C222.896 125.844 221.833 128.409 221.833 131.083C221.833 133.758 222.896 136.322 224.787 138.213C226.678 140.104 229.242 141.167 231.917 141.167C234.591 141.167 237.156 140.104 239.047 138.213C240.938 136.322 242 133.758 242 131.083C242 128.409 240.938 125.844 239.047 123.953C237.156 122.062 234.591 121 231.917 121ZM30.25 141.167C27.5757 141.167 25.011 142.229 23.12 144.12C21.229 146.011 20.1667 148.576 20.1667 151.25C20.1667 153.924 21.229 156.489 23.12 158.38C25.011 160.271 27.5757 161.333 30.25 161.333C32.9243 161.333 35.489 160.271 37.38 158.38C39.271 156.489 40.3333 153.924 40.3333 151.25C40.3333 148.576 39.271 146.011 37.38 144.12C35.489 142.229 32.9243 141.167 30.25 141.167ZM60.5 141.167C57.8257 141.167 55.261 142.229 53.37 144.12C51.479 146.011 50.4167 148.576 50.4167 151.25C50.4167 153.924 51.479 156.489 53.37 158.38C55.261 160.271 57.8257 161.333 60.5 161.333C63.1743 161.333 65.739 160.271 67.63 158.38C69.521 156.489 70.5833 153.924 70.5833 151.25C70.5833 148.576 69.521 146.011 67.63 144.12C65.739 142.229 63.1743 141.167 60.5 141.167ZM90.75 141.167C88.0757 141.167 85.511 142.229 83.62 144.12C81.729 146.011 80.6667 148.576 80.6667 151.25C80.6667 153.924 81.729 156.489 83.62 158.38C85.511 160.271 88.0757 161.333 90.75 161.333C93.4243 161.333 95.989 160.271 97.88 158.38C99.771 156.489 100.833 153.924 100.833 151.25C100.833 148.576 99.771 146.011 97.88 144.12C95.989 142.229 93.4243 141.167 90.75 141.167ZM151.25 141.167C148.576 141.167 146.011 142.229 144.12 144.12C142.229 146.011 141.167 148.576 141.167 151.25C141.167 153.924 142.229 156.489 144.12 158.38C146.011 160.271 148.576 161.333 151.25 161.333C153.924 161.333 156.489 160.271 158.38 158.38C160.271 156.489 161.333 153.924 161.333 151.25C161.333 148.576 160.271 146.011 158.38 144.12C156.489 142.229 153.924 141.167 151.25 141.167ZM181.5 141.167C178.826 141.167 176.261 142.229 174.37 144.12C172.479 146.011 171.417 148.576 171.417 151.25C171.417 153.924 172.479 156.489 174.37 158.38C176.261 160.271 178.826 161.333 181.5 161.333C184.174 161.333 186.739 160.271 188.63 158.38C190.521 156.489 191.583 153.924 191.583 151.25C191.583 148.576 190.521 146.011 188.63 144.12C186.739 142.229 184.174 141.167 181.5 141.167ZM211.75 141.167C209.076 141.167 206.511 142.229 204.62 144.12C202.729 146.011 201.667 148.576 201.667 151.25C201.667 153.924 202.729 156.489 204.62 158.38C206.511 160.271 209.076 161.333 211.75 161.333C214.424 161.333 216.989 160.271 218.88 158.38C220.771 156.489 221.833 153.924 221.833 151.25C221.833 148.576 220.771 146.011 218.88 144.12C216.989 142.229 214.424 141.167 211.75 141.167ZM10.0833 161.333C7.40907 161.333 4.84433 162.396 2.95334 164.287C1.06235 166.178 0 168.742 0 171.417C0 174.091 1.06235 176.656 2.95334 178.547C4.84433 180.438 7.40907 181.5 10.0833 181.5C12.7576 181.5 15.3223 180.438 17.2133 178.547C19.1043 176.656 20.1667 174.091 20.1667 171.417C20.1667 168.742 19.1043 166.178 17.2133 164.287C15.3223 162.396 12.7576 161.333 10.0833 161.333ZM10.0833 191.583C7.40907 191.583 4.84433 192.646 2.95334 194.537C1.06235 196.428 0 198.992 0 201.667C0 204.341 1.06235 206.906 2.95334 208.797C4.84433 210.688 7.40907 211.75 10.0833 211.75C12.7576 211.75 15.3223 210.688 17.2133 208.797C19.1043 206.906 20.1667 204.341 20.1667 201.667C20.1667 198.992 19.1043 196.428 17.2133 194.537C15.3223 192.646 12.7576 191.583 10.0833 191.583ZM221.833 201.667C210.815 201.667 201.667 210.815 201.667 221.833C201.667 232.852 210.815 242 221.833 242C232.852 242 242 232.852 242 221.833C242 210.815 232.852 201.667 221.833 201.667ZM30.25 211.75C27.5757 211.75 25.011 212.812 23.12 214.703C21.229 216.594 20.1667 219.159 20.1667 221.833C20.1667 224.508 21.229 227.072 23.12 228.963C25.011 230.854 27.5757 231.917 30.25 231.917C32.9243 231.917 35.489 230.854 37.38 228.963C39.271 227.072 40.3333 224.508 40.3333 221.833C40.3333 219.159 39.271 216.594 37.38 214.703C35.489 212.812 32.9243 211.75 30.25 211.75ZM60.5 211.75C57.8257 211.75 55.261 212.812 53.37 214.703C51.479 216.594 50.4167 219.159 50.4167 221.833C50.4167 224.508 51.479 227.072 53.37 228.963C55.261 230.854 57.8257 231.917 60.5 231.917C63.1743 231.917 65.739 230.854 67.63 228.963C69.521 227.072 70.5833 224.508 70.5833 221.833C70.5833 219.159 69.521 216.594 67.63 214.703C65.739 212.812 63.1743 211.75 60.5 211.75ZM90.75 211.75C88.0757 211.75 85.511 212.812 83.62 214.703C81.729 216.594 80.6667 219.159 80.6667 221.833C80.6667 224.508 81.729 227.072 83.62 228.963C85.511 230.854 88.0757 231.917 90.75 231.917C93.4243 231.917 95.989 230.854 97.88 228.963C99.771 227.072 100.833 224.508 100.833 221.833C100.833 219.159 99.771 216.594 97.88 214.703C95.989 212.812 93.4243 211.75 90.75 211.75ZM121 211.75C118.326 211.75 115.761 212.812 113.87 214.703C111.979 216.594 110.917 219.159 110.917 221.833C110.917 224.508 111.979 227.072 113.87 228.963C115.761 230.854 118.326 231.917 121 231.917C123.674 231.917 126.239 230.854 128.13 228.963C130.021 227.072 131.083 224.508 131.083 221.833C131.083 219.159 130.021 216.594 128.13 214.703C126.239 212.812 123.674 211.75 121 211.75ZM151.25 211.75C148.576 211.75 146.011 212.812 144.12 214.703C142.229 216.594 141.167 219.159 141.167 221.833C141.167 224.508 142.229 227.072 144.12 228.963C146.011 230.854 148.576 231.917 151.25 231.917C153.924 231.917 156.489 230.854 158.38 228.963C160.271 227.072 161.333 224.508 161.333 221.833C161.333 219.159 160.271 216.594 158.38 214.703C156.489 212.812 153.924 211.75 151.25 211.75ZM181.5 211.75C178.826 211.75 176.261 212.812 174.37 214.703C172.479 216.594 171.417 219.159 171.417 221.833C171.417 224.508 172.479 227.072 174.37 228.963C176.261 230.854 178.826 231.917 181.5 231.917C184.174 231.917 186.739 230.854 188.63 228.963C190.521 227.072 191.583 224.508 191.583 221.833C191.583 219.159 190.521 216.594 188.63 214.703C186.739 212.812 184.174 211.75 181.5 211.75Z" fill="#CA1010"/>
</svg>
